<svg width="80" height="14" viewBox="0 0 80 14" fill="none" xmlns="http://www.w3.org/2000/svg">
<path d="M14.4896 12.4196C14.1085 12.4196 13.7996 12.7286 13.7996 13.1096C13.7996 13.4907 13.4907 13.7996 13.1096 13.7996H2.06994C1.68888 13.7996 1.37996 13.4907 1.37996 13.1096C1.37996 12.7286 1.07105 12.4196 0.689981 12.4196C0.308915 12.4196 0 12.1107 0 11.7297V2.06994C0 1.68887 0.308915 1.37996 0.689981 1.37996C1.07105 1.37996 1.37996 1.07105 1.37996 0.68998C1.37996 0.308915 1.68888 0 2.06994 0H14.1796C14.7319 0 15.1796 0.447715 15.1796 1V1.75992C15.1796 2.31221 14.7319 2.75992 14.1796 2.75992H6.51984C5.96756 2.75992 5.51984 3.20764 5.51984 3.75992V10.0397C5.51984 10.592 5.96756 11.0397 6.51984 11.0397H8.65973C9.21201 11.0397 9.65973 10.592 9.65973 10.0397V9.27977C9.65973 8.72748 9.21201 8.27977 8.65973 8.27977H7.8998C7.34752 8.27977 6.8998 7.83205 6.8998 7.27977V6.51984C6.8998 5.96756 7.34752 5.51984 7.8998 5.51984H13.1096C13.4907 5.51984 13.7996 5.82876 13.7996 6.20982C13.7996 6.59089 14.1085 6.8998 14.4896 6.8998C14.8707 6.8998 15.1796 7.20872 15.1796 7.58979V11.7297C15.1796 12.1107 14.8707 12.4196 14.4896 12.4196Z" fill="white"/>
<path d="M23.0686 8.27977C22.5163 8.27977 22.0686 8.72748 22.0686 9.27977V12.7996C22.0686 13.3519 21.6209 13.7996 21.0686 13.7996H17.5488C16.9965 13.7996 16.5487 13.3519 16.5487 12.7996V0.999999C16.5487 0.447715 16.9965 0 17.5487 0H29.6584C30.0394 0 30.3484 0.308915 30.3484 0.689981C30.3484 1.07105 30.6573 1.37996 31.0383 1.37996C31.4194 1.37996 31.7283 1.68887 31.7283 2.06994V4.82986C31.7283 5.21093 31.4194 5.51984 31.0383 5.51984C30.6573 5.51984 30.3484 5.82876 30.3484 6.20982V7.58979C30.3484 7.97085 30.6573 8.27977 31.0383 8.27977C31.4194 8.27977 31.7283 8.58868 31.7283 8.96975V12.7996C31.7283 13.3519 31.2806 13.7996 30.7283 13.7996H27.2085C26.6562 13.7996 26.2085 13.3519 26.2085 12.7996V9.27977C26.2085 8.72748 25.7608 8.27977 25.2085 8.27977H23.0686ZM23.0686 2.75992C22.5163 2.75992 22.0686 3.20764 22.0686 3.75992V4.51984C22.0686 5.07213 22.5163 5.51984 23.0686 5.51984H25.2085C25.7608 5.51984 26.2085 5.07213 26.2085 4.51984V3.75992C26.2085 3.20764 25.7608 2.75992 25.2085 2.75992H23.0686Z" fill="white"/>
<path d="M39.6173 8.27977C39.0651 8.27977 38.6173 8.72748 38.6173 9.27977V12.7996C38.6173 13.3519 38.1696 13.7996 37.6173 13.7996H34.0975C33.5452 13.7996 33.0975 13.3519 33.0975 12.7996V2.06994C33.0975 1.68887 33.4064 1.37996 33.7875 1.37996C34.1685 1.37996 34.4775 1.07105 34.4775 0.68998C34.4775 0.308915 34.7864 0 35.1674 0H46.2071C46.5882 0 46.8971 0.308915 46.8971 0.689981C46.8971 1.07105 47.206 1.37996 47.5871 1.37996C47.9682 1.37996 48.2771 1.68887 48.2771 2.06994V12.7996C48.2771 13.3519 47.8294 13.7996 47.2771 13.7996H43.7572C43.2049 13.7996 42.7572 13.3519 42.7572 12.7996V9.27977C42.7572 8.72748 42.3095 8.27977 41.7572 8.27977H39.6173ZM39.6173 2.75992C39.0651 2.75992 38.6173 3.20764 38.6173 3.75992V4.51984C38.6173 5.07213 39.0651 5.51984 39.6173 5.51984H41.7572C42.3095 5.51984 42.7572 5.07213 42.7572 4.51984V3.75992C42.7572 3.20764 42.3095 2.75992 41.7572 2.75992H39.6173Z" fill="white"/>
<path d="M50.6463 2.75992C50.094 2.75992 49.6463 2.31221 49.6463 1.75992V1C49.6463 0.447716 50.094 0 50.6463 0H62.4459C62.9981 0 63.4459 0.447715 63.4459 1V1.75992C63.4459 2.31221 62.9981 2.75992 62.4459 2.75992H60.306C59.7537 2.75992 59.306 3.20764 59.306 3.75992V10.0397C59.306 10.592 59.7537 11.0397 60.306 11.0397H62.4459C62.9981 11.0397 63.4459 11.4874 63.4459 12.0397V12.7996C63.4459 13.3519 62.9981 13.7996 62.4459 13.7996H50.6463C50.094 13.7996 49.6463 13.3519 49.6463 12.7996V12.0397C49.6463 11.4874 50.094 11.0397 50.6463 11.0397H52.7861C53.3384 11.0397 53.7861 10.592 53.7861 10.0397V3.75992C53.7861 3.20764 53.3384 2.75992 52.7861 2.75992H50.6463Z" fill="white"/>
<path d="M65.8204 13.7996C65.2681 13.7996 64.8204 13.3519 64.8204 12.7996V0.999999C64.8204 0.447715 65.2681 0 65.8204 0H69.3403C69.8926 0 70.3403 0.447715 70.3403 1V10.0397C70.3403 10.592 70.788 11.0397 71.3403 11.0397H79C79.5523 11.0397 80 11.4874 80 12.0397V12.7996C80 13.3519 79.5523 13.7996 79 13.7996H65.8204Z" fill="white"/>
</svg>
