<svg xmlns="http://www.w3.org/2000/svg" width="752" height="276" fill="none"><path fill="#B0A66C" d="M310.169 92.775c17.233 0 32.793 4.101 46.691 12.329 14.106 8.227 25.253 19.284 33.481 33.182 8.422 13.704 12.626 29.276 12.626 46.107s-4.204 32.196-12.626 46.094c-8.228 13.899-19.388 24.955-33.481 33.182-13.898 8.214-29.652 12.329-46.691 12.329s-32.598-4.102-46.691-12.329c-14.093-8.227-25.345-19.283-33.767-33.182-8.214-13.898-12.328-29.056-12.328-46.094 0-17.039 4.101-32.403 12.328-46.107 8.409-13.898 19.674-24.955 33.767-33.182 14.093-8.215 29.458-12.329 46.691-12.329Zm348.185 0c17.234 0 32.794 4.101 46.692 12.329 14.093 8.227 25.253 19.284 33.468 33.182 8.421 13.704 12.626 29.276 12.626 46.107s-4.204 32.196-12.626 46.094c-8.215 13.898-19.375 24.955-33.468 33.182-13.898 8.214-29.653 12.329-46.692 12.329-17.038 0-32.598-4.102-46.691-12.329-14.093-8.227-25.344-19.283-33.767-33.182-8.214-13.898-12.328-29.056-12.328-46.094 0-17.039 4.101-32.403 12.328-46.107 8.423-13.898 19.674-24.955 33.767-33.182 14.093-8.215 29.458-12.329 46.691-12.329Zm-189.121 3.303 3.854 17.506 17.506-17.506h62.886l-6.54 29.731h-73.865l.39 19.179v129.459h-33.04V96.078h28.809ZM197.148 92h-31.331l-20.233 91.998h-31.706l-19.855 90.277H0l20.233-92H51.94l19.854-90.277h31.331L123.358 0h94.024l-20.234 92Zm113.021 30.727c-11.355 0-21.633 2.841-30.834 8.512-9.201 5.489-16.545 12.925-22.022 22.321-5.489 9.2-8.227 19.491-8.227 30.833 0 11.341 2.751 21.723 8.227 31.119 5.477 9.2 12.821 16.649 22.022 22.32 9.201 5.489 19.479 8.228 30.834 8.228s21.632-2.752 30.833-8.228c9.201-5.684 16.546-13.12 22.022-22.32 5.49-9.396 8.227-19.765 8.227-31.119 0-11.355-2.75-21.633-8.227-30.833-5.476-9.396-12.821-16.844-22.022-22.321-9.201-5.671-19.478-8.512-30.833-8.512Zm348.185 0c-11.354 0-21.633 2.841-30.833 8.512-9.201 5.489-16.546 12.925-22.022 22.321-5.489 9.2-8.227 19.491-8.228 30.833 0 11.341 2.752 21.723 8.228 31.119 5.476 9.2 12.821 16.649 22.022 22.32 9.2 5.489 19.479 8.228 30.833 8.228 11.355 0 21.633-2.752 30.834-8.228 9.2-5.684 16.546-13.12 22.022-22.32 5.489-9.396 8.228-19.765 8.228-31.119-.001-11.355-2.752-21.633-8.228-30.833-5.476-9.396-12.822-16.844-22.022-22.321-9.201-5.671-19.479-8.512-30.834-8.512Z"/></svg>